<svg width="1000" height="1000" xmlns="http://www.w3.org/2000/svg" version="1.1">


<!-- internal style sheet -->
<style type="text/css"><![CDATA[
 rect.background{fill:white}
 rect{fill:none; stroke:rgb(25,25,25); stroke-width:2}
 text{font-family:Helvetica; text-anchor:middle; fill:rgb(25,25,25)}
 line{stroke:rgb(25,25,25); stroke-width:4}
 path{fill:none; stroke:rgb(25,25,25); stroke-width:2}
 circle{fill:white; stroke:black; stroke-width:2}

 path.p0{fill:rgb(0,102,255); stroke:rgb(25,25,25); stroke-width:2}
 path.ps0{fill:rgb(0,77,191); stroke:rgb(20,20,20); stroke-width:2}
 rect.r0{fill:rgb(0,102,255); stroke:rgb(25,25,25); stroke-width:2}
]]></style>

 <rect class="background" width="1000" height="1000"/>
  <!-- cells -->
  <path class="p0" d="M 238 80 L 177 92 L 197 140 L 238 133 L 238 80"/>
  <line x1="238" y1="80" x2="238" y2="133"/>
  <line x1="238" y1="80" x2="177" y2="92"/>
  <line x1="238" y1="133" x2="197" y2="140"/>
  <path class="p0" d="M 177 92 L 126 126 L 163 163 L 197 140 L 177 92"/>
  <line x1="177" y1="92" x2="126" y2="126"/>
  <line x1="197" y1="140" x2="163" y2="163"/>
  <path class="p0" d="M 126 126 L 92 177 L 140 197 L 163 163 L 126 126"/>
  <line x1="126" y1="126" x2="92" y2="177"/>
  <line x1="163" y1="163" x2="140" y2="197"/>
  <path class="p0" d="M 92 177 L 80 238 L 133 238 L 140 197 L 92 177"/>
  <line x1="80" y1="238" x2="133" y2="238"/>
  <line x1="92" y1="177" x2="80" y2="238"/>
  <line x1="140" y1="197" x2="133" y2="238"/>
  <path class="p0" d="M 80 762 L 92 823 L 140 803 L 133 762 L 80 762"/>
  <line x1="80" y1="762" x2="133" y2="762"/>
  <line x1="80" y1="762" x2="92" y2="823"/>
  <line x1="133" y1="762" x2="140" y2="803"/>
  <path class="p0" d="M 92 823 L 126 874 L 163 837 L 140 803 L 92 823"/>
  <line x1="92" y1="823" x2="126" y2="874"/>
  <line x1="140" y1="803" x2="163" y2="837"/>
  <path class="p0" d="M 126 874 L 177 908 L 197 860 L 163 837 L 126 874"/>
  <line x1="126" y1="874" x2="177" y2="908"/>
  <line x1="163" y1="837" x2="197" y2="860"/>
  <path class="p0" d="M 177 908 L 238 920 L 238 867 L 197 860 L 177 908"/>
  <line x1="238" y1="920" x2="238" y2="867"/>
  <line x1="177" y1="908" x2="238" y2="920"/>
  <line x1="197" y1="860" x2="238" y2="867"/>
  <path class="p0" d="M 762 920 L 823 908 L 803 860 L 762 867 L 762 920"/>
  <line x1="762" y1="920" x2="762" y2="867"/>
  <line x1="762" y1="920" x2="823" y2="908"/>
  <line x1="762" y1="867" x2="803" y2="860"/>
  <path class="p0" d="M 823 908 L 874 874 L 837 837 L 803 860 L 823 908"/>
  <line x1="823" y1="908" x2="874" y2="874"/>
  <line x1="803" y1="860" x2="837" y2="837"/>
  <path class="p0" d="M 874 874 L 908 823 L 860 803 L 837 837 L 874 874"/>
  <line x1="874" y1="874" x2="908" y2="823"/>
  <line x1="837" y1="837" x2="860" y2="803"/>
  <path class="p0" d="M 908 823 L 920 762 L 867 762 L 860 803 L 908 823"/>
  <line x1="920" y1="762" x2="867" y2="762"/>
  <line x1="908" y1="823" x2="920" y2="762"/>
  <line x1="860" y1="803" x2="867" y2="762"/>
  <path class="p0" d="M 920 238 L 908 177 L 860 197 L 867 238 L 920 238"/>
  <line x1="920" y1="238" x2="867" y2="238"/>
  <line x1="920" y1="238" x2="908" y2="177"/>
  <line x1="867" y1="238" x2="860" y2="197"/>
  <path class="p0" d="M 908 177 L 874 126 L 837 163 L 860 197 L 908 177"/>
  <line x1="908" y1="177" x2="874" y2="126"/>
  <line x1="860" y1="197" x2="837" y2="163"/>
  <path class="p0" d="M 874 126 L 823 92 L 803 140 L 837 163 L 874 126"/>
  <line x1="874" y1="126" x2="823" y2="92"/>
  <line x1="837" y1="163" x2="803" y2="140"/>
  <path class="p0" d="M 823 92 L 762 80 L 762 133 L 803 140 L 823 92"/>
  <line x1="762" y1="80" x2="762" y2="133"/>
  <line x1="823" y1="92" x2="762" y2="80"/>
  <line x1="803" y1="140" x2="762" y2="133"/>
  <path class="p0" d="M 867 762 L 894 762 L 894 500 L 867 500 L 867 762"/>
  <line x1="867" y1="762" x2="867" y2="500"/>
  <line x1="867" y1="762" x2="894" y2="762"/>
  <path class="p0" d="M 894 762 L 920 762 L 920 500 L 894 500 L 894 762"/>
  <line x1="920" y1="762" x2="920" y2="500"/>
  <line x1="894" y1="762" x2="920" y2="762"/>
  <path class="p0" d="M 867 500 L 894 500 L 894 238 L 867 238 L 867 500"/>
  <line x1="867" y1="500" x2="867" y2="238"/>
  <line x1="867" y1="238" x2="894" y2="238"/>
  <path class="p0" d="M 894 500 L 920 500 L 920 238 L 894 238 L 894 500"/>
  <line x1="920" y1="500" x2="920" y2="238"/>
  <line x1="894" y1="238" x2="920" y2="238"/>
  <path class="p0" d="M 80 762 L 106 762 L 106 500 L 80 500 L 80 762"/>
  <line x1="80" y1="762" x2="80" y2="500"/>
  <line x1="80" y1="762" x2="106" y2="762"/>
  <path class="p0" d="M 106 762 L 133 762 L 133 500 L 106 500 L 106 762"/>
  <line x1="133" y1="762" x2="133" y2="500"/>
  <line x1="106" y1="762" x2="133" y2="762"/>
  <path class="p0" d="M 80 500 L 106 500 L 106 238 L 80 238 L 80 500"/>
  <line x1="80" y1="500" x2="80" y2="238"/>
  <line x1="80" y1="238" x2="106" y2="238"/>
  <path class="p0" d="M 106 500 L 133 500 L 133 238 L 106 238 L 106 500"/>
  <line x1="133" y1="500" x2="133" y2="238"/>
  <line x1="106" y1="238" x2="133" y2="238"/>
  <path class="p0" d="M 238 133 L 500 133 L 500 106 L 238 106 L 238 133"/>
  <line x1="238" y1="133" x2="238" y2="106"/>
  <line x1="238" y1="133" x2="500" y2="133"/>
  <path class="p0" d="M 500 133 L 762 133 L 762 106 L 500 106 L 500 133"/>
  <line x1="762" y1="133" x2="762" y2="106"/>
  <line x1="500" y1="133" x2="762" y2="133"/>
  <path class="p0" d="M 238 106 L 500 106 L 500 80 L 238 80 L 238 106"/>
  <line x1="238" y1="106" x2="238" y2="80"/>
  <line x1="238" y1="80" x2="500" y2="80"/>
  <path class="p0" d="M 500 106 L 762 106 L 762 80 L 500 80 L 500 106"/>
  <line x1="762" y1="106" x2="762" y2="80"/>
  <line x1="500" y1="80" x2="762" y2="80"/>
  <path class="p0" d="M 238 920 L 500 920 L 500 894 L 238 894 L 238 920"/>
  <line x1="238" y1="920" x2="238" y2="894"/>
  <line x1="238" y1="920" x2="500" y2="920"/>
  <path class="p0" d="M 500 920 L 762 920 L 762 894 L 500 894 L 500 920"/>
  <line x1="762" y1="920" x2="762" y2="894"/>
  <line x1="500" y1="920" x2="762" y2="920"/>
  <path class="p0" d="M 238 894 L 500 894 L 500 867 L 238 867 L 238 894"/>
  <line x1="238" y1="894" x2="238" y2="867"/>
  <line x1="238" y1="867" x2="500" y2="867"/>
  <path class="p0" d="M 500 894 L 762 894 L 762 867 L 500 867 L 500 894"/>
  <line x1="762" y1="894" x2="762" y2="867"/>
  <line x1="500" y1="867" x2="762" y2="867"/>

</svg>